<svg xmlns="http://www.w3.org/2000/svg" width="1792" height="645" viewBox="0 0 717 258" font-family="Arial, sans-serif">
  <defs>
    <marker id="ah" viewBox="0 0 8 6" refX="8" refY="3"
      markerWidth="4" markerHeight="3" orient="auto">
      <path d="M0.5,0.5 L7,3 L0.5,5.5" fill="none" stroke="#94A3B8"
        stroke-width="1.2" stroke-linejoin="round" stroke-linecap="round"/>
    </marker>
    <filter id="shadow" x="-6%" y="-8%" width="112%" height="128%">
      <feDropShadow dx="0" dy="0.5" stdDeviation="0.8"
        flood-color="#000" flood-opacity="0.05"/>
    </filter>
  </defs>
  <rect width="717" height="258" fill="#F8F9FB" rx="3"/>
  <text x="358" y="11" text-anchor="middle" font-size="6" font-weight="700" fill="#1E293B">SzAlpha Bridge Architecture</text>
  <rect x="283" y="16" width="150" height="10" rx="3" fill="#fff" stroke="#E2E5EA" stroke-width="0.4"/>
  <rect x="288" y="18.5" width="5" height="5" rx="2.5" fill="#fff" stroke="#E2E5EA" stroke-width="0.4"/>
  <text x="296" y="22.5" font-size="3.5" fill="#1E293B">Actor</text>
  <rect x="328" y="18.5" width="5" height="5" rx="1.5" fill="#fff" stroke="#E2E5EA" stroke-width="0.4"/>
  <rect x="329" y="19.5" width="0.8" height="3" rx="0.4" fill="#3B82F6"/>
  <text x="336" y="22.5" font-size="3.5" fill="#1E293B">Protocol</text>
  <rect x="376" y="18.5" width="5" height="5" rx="1.5" fill="#fff" stroke="#E2E5EA" stroke-width="0.4"/>
  <rect x="377" y="19.5" width="0.8" height="3" rx="0.4" fill="#F59E0B"/>
  <text x="384" y="22.5" font-size="3.5" fill="#1E293B">External</text>
  <path d="M215.6,46.0 C215.6,70.0 251.5,70.0 251.5,94.0" fill="none" stroke="#94A3B8" stroke-width="0.5" marker-end="url(#ah)"/>
  <path d="M294.8,46.0 C294.8,70.0 251.5,70.0 251.5,94.0" fill="none" stroke="#94A3B8" stroke-width="0.5" marker-end="url(#ah)"/>
  <path d="M377.6,46.0 C377.6,70.0 251.5,70.0 251.5,94.0" fill="none" stroke="#94A3B8" stroke-width="0.5" marker-end="url(#ah)"/>
  <path d="M76.7,46.0 C76.7,70.0 80.8,70.0 80.8,94.0" fill="none" stroke="#94A3B8" stroke-width="0.5" marker-end="url(#ah)"/>
  <path d="M251.5,114.0 C251.5,135.0 239.6,135.0 239.6,156.0" fill="none" stroke="#94A3B8" stroke-width="0.5" marker-end="url(#ah)"/>
  <path d="M400.8,156.0 C400.8,135.0 251.5,135.0 251.5,114.0" fill="none" stroke="#94A3B8" stroke-width="0.5" marker-end="url(#ah)"/>
  <path d="M582.4,166.0 Q593.4,144.0 604.4,166.0" fill="none" stroke="#94A3B8" stroke-width="0.5" marker-end="url(#ah)"/>
  <path d="M400.8,176.0 C400.8,197.0 363.4,197.0 363.4,218.0" fill="none" stroke="#94A3B8" stroke-width="0.5" marker-end="url(#ah)"/>
  <path d="M400.8,176.0 C400.8,197.0 477.4,197.0 477.4,218.0" fill="none" stroke="#94A3B8" stroke-width="0.5" marker-end="url(#ah)"/>
  <path d="M534.0,176.0 C534.0,197.0 477.4,197.0 477.4,218.0" fill="none" stroke="#94A3B8" stroke-width="0.5" marker-end="url(#ah)"/>
  <g filter="url(#shadow)">
    <rect x="187.6" y="32.0" width="56.0" height="14" rx="7" fill="#fff" stroke="#E2E5EA" stroke-width="0.5"/>
    <text x="215.6" y="40.8" text-anchor="middle" font-size="4.8" font-weight="600" fill="#1E293B">User</text>
  </g>
  <g filter="url(#shadow)">
    <rect x="37.9" y="32.0" width="77.6" height="14" rx="7" fill="#fff" stroke="#E2E5EA" stroke-width="0.5"/>
    <text x="76.7" y="40.8" text-anchor="middle" font-size="4.8" font-weight="600" fill="#1E293B">CRE Workflow</text>
  </g>
  <g filter="url(#shadow)">
    <rect x="265.6" y="32.0" width="58.4" height="14" rx="7" fill="#fff" stroke="#E2E5EA" stroke-width="0.5"/>
    <text x="294.8" y="40.8" text-anchor="middle" font-size="4.8" font-weight="600" fill="#1E293B">Timelock</text>
  </g>
  <g filter="url(#shadow)">
    <rect x="346.0" y="32.0" width="63.2" height="14" rx="7" fill="#fff" stroke="#E2E5EA" stroke-width="0.5"/>
    <text x="377.6" y="40.8" text-anchor="middle" font-size="4.8" font-weight="600" fill="#1E293B">ccipAdmin</text>
  </g>
  <g filter="url(#shadow)">
    <rect x="214.5" y="94.0" width="74.0" height="20" rx="3" fill="#fff" stroke="#E2E5EA" stroke-width="0.5"/>
    <rect x="217.5" y="97.0" width="1.4" height="14" rx="0.6" fill="#3B82F6"/>
    <text x="251.5" y="103.5" text-anchor="middle" font-size="4.8" font-weight="600" fill="#1E293B">SzAlpha</text>
    <text x="251.5" y="108.5" text-anchor="middle" font-size="3.5" fill="#64748B">964 LST wrapper</text>
  </g>
  <g filter="url(#shadow)">
    <rect x="30.0" y="94.0" width="101.6" height="20" rx="3" fill="#fff" stroke="#E2E5EA" stroke-width="0.5"/>
    <rect x="33.0" y="97.0" width="1.4" height="14" rx="0.6" fill="#3B82F6"/>
    <text x="80.8" y="103.5" text-anchor="middle" font-size="4.8" font-weight="600" fill="#1E293B">SzAlphaRateOracle</text>
    <text x="80.8" y="108.5" text-anchor="middle" font-size="3.5" fill="#64748B">Base rate cache</text>
  </g>
  <g filter="url(#shadow)">
    <rect x="199.0" y="156.0" width="81.2" height="20" rx="3" fill="#fff" stroke="#E2E5EA" stroke-width="0.5"/>
    <rect x="202.0" y="159.0" width="1.4" height="14" rx="0.6" fill="#F59E0B"/>
    <text x="239.6" y="165.5" text-anchor="middle" font-size="4.8" font-weight="600" fill="#1E293B">Subtensor</text>
    <text x="239.6" y="170.5" text-anchor="middle" font-size="3.5" fill="#64748B">StakingV2 / Alpha</text>
  </g>
  <g filter="url(#shadow)">
    <rect x="338.0" y="156.0" width="125.6" height="20" rx="3" fill="#fff" stroke="#E2E5EA" stroke-width="0.5"/>
    <rect x="341.0" y="159.0" width="1.4" height="14" rx="0.6" fill="#3B82F6"/>
    <text x="400.8" y="165.5" text-anchor="middle" font-size="4.8" font-weight="600" fill="#1E293B">SzAlphaLockReleasePool</text>
    <text x="400.8" y="170.5" text-anchor="middle" font-size="3.5" fill="#64748B">964 CCT pool</text>
  </g>
  <g filter="url(#shadow)">
    <rect x="485.6" y="156.0" width="96.8" height="20" rx="3" fill="#fff" stroke="#E2E5EA" stroke-width="0.5"/>
    <rect x="488.6" y="159.0" width="1.4" height="14" rx="0.6" fill="#3B82F6"/>
    <text x="534.0" y="165.5" text-anchor="middle" font-size="4.8" font-weight="600" fill="#1E293B">SzAlphaTokenPool</text>
    <text x="534.0" y="170.5" text-anchor="middle" font-size="3.5" fill="#64748B">Base CCT pool</text>
  </g>
  <g filter="url(#shadow)">
    <rect x="604.4" y="156.0" width="82.4" height="20" rx="3" fill="#fff" stroke="#E2E5EA" stroke-width="0.5"/>
    <rect x="607.4" y="159.0" width="1.4" height="14" rx="0.6" fill="#3B82F6"/>
    <text x="645.6" y="165.5" text-anchor="middle" font-size="4.8" font-weight="600" fill="#1E293B">SzAlphaMirror</text>
    <text x="645.6" y="170.5" text-anchor="middle" font-size="3.5" fill="#64748B">Base mirror</text>
  </g>
  <g filter="url(#shadow)">
    <rect x="424.2" y="218.0" width="106.4" height="20" rx="3" fill="#fff" stroke="#E2E5EA" stroke-width="0.5"/>
    <rect x="427.2" y="221.0" width="1.4" height="14" rx="0.6" fill="#F59E0B"/>
    <text x="477.4" y="227.5" text-anchor="middle" font-size="4.8" font-weight="600" fill="#1E293B">Chainlink CCIP</text>
    <text x="477.4" y="232.5" text-anchor="middle" font-size="3.5" fill="#64748B">Router / RMN / Forwarder</text>
  </g>
  <g filter="url(#shadow)">
    <rect x="324.6" y="218.0" width="77.6" height="20" rx="3" fill="#fff" stroke="#E2E5EA" stroke-width="0.5"/>
    <rect x="327.6" y="221.0" width="1.4" height="14" rx="0.6" fill="#F59E0B"/>
    <text x="363.4" y="227.5" text-anchor="middle" font-size="4.8" font-weight="600" fill="#1E293B">ERC20LockBox</text>
    <text x="363.4" y="232.5" text-anchor="middle" font-size="3.5" fill="#64748B">Custody</text>
  </g>
  <rect x="214.8" y="65.0" width="37.6" height="6.0" rx="1" fill="#F8F9FB"/>
  <text x="233.6" y="70.0" font-size="4" fill="#1E293B" font-weight="500" text-anchor="middle">stake / redeem</text>
  <rect x="261.2" y="63.0" width="40.0" height="6.0" rx="1" fill="#F8F9FB"/>
  <text x="281.2" y="68.0" font-size="4" fill="#1E293B" font-weight="500" text-anchor="middle">upgrade / pause</text>
  <rect x="305.0" y="63.0" width="35.2" height="6.0" rx="1" fill="#F8F9FB"/>
  <text x="322.6" y="68.0" font-size="4" fill="#1E293B" font-weight="500" text-anchor="middle">set registrar</text>
  <rect x="65.9" y="65.0" width="25.6" height="6.0" rx="1" fill="#F8F9FB"/>
  <text x="78.7" y="70.0" font-size="4" fill="#1E293B" font-weight="500" text-anchor="middle">push rate</text>
  <rect x="217.2" y="130.0" width="56.8" height="6.0" rx="1" fill="#F8F9FB"/>
  <text x="245.6" y="135.0" font-size="4" fill="#1E293B" font-weight="500" text-anchor="middle">addStake / removeStake</text>
  <rect x="308.6" y="130.0" width="35.2" height="6.0" rx="1" fill="#F8F9FB"/>
  <text x="326.2" y="135.0" font-size="4" fill="#1E293B" font-weight="500" text-anchor="middle">locks szALPHA</text>
  <rect x="578.2" y="143.0" width="30.4" height="6.0" rx="1" fill="#F8F9FB"/>
  <text x="593.4" y="148.0" font-size="4" fill="#1E293B" font-weight="500" text-anchor="middle">burn / mint</text>
  <rect x="362.1" y="192.0" width="40.0" height="6.0" rx="1" fill="#F8F9FB"/>
  <text x="382.1" y="197.0" font-size="4" fill="#1E293B" font-weight="500" text-anchor="middle">lockbox custody</text>
  <rect x="416.7" y="192.0" width="44.8" height="6.0" rx="1" fill="#F8F9FB"/>
  <text x="439.1" y="197.0" font-size="4" fill="#1E293B" font-weight="500" text-anchor="middle">lock/release lane</text>
  <rect x="486.9" y="192.0" width="37.6" height="6.0" rx="1" fill="#F8F9FB"/>
  <text x="505.7" y="197.0" font-size="4" fill="#1E293B" font-weight="500" text-anchor="middle">burn/mint lane</text>
</svg>