<svg xmlns="http://www.w3.org/2000/svg" width="1132" height="490" viewBox="0 0 453 196" font-family="Arial, sans-serif">
  <defs>
    <marker id="ah" viewBox="0 0 8 6" refX="8" refY="3"
      markerWidth="4" markerHeight="3" orient="auto">
      <path d="M0.5,0.5 L7,3 L0.5,5.5" fill="none" stroke="#94A3B8"
        stroke-width="1.2" stroke-linejoin="round" stroke-linecap="round"/>
    </marker>
    <filter id="shadow" x="-6%" y="-8%" width="112%" height="128%">
      <feDropShadow dx="0" dy="0.5" stdDeviation="0.8"
        flood-color="#000" flood-opacity="0.05"/>
    </filter>
  </defs>
  <rect width="453" height="196" fill="#F8F9FB" rx="3"/>
  <text x="227" y="11" text-anchor="middle" font-size="6" font-weight="700" fill="#1E293B">Loss Subsystem Architecture</text>
  <rect x="152" y="16" width="150" height="10" rx="3" fill="#fff" stroke="#E2E5EA" stroke-width="0.4"/>
  <rect x="157" y="18.5" width="5" height="5" rx="2.5" fill="#fff" stroke="#E2E5EA" stroke-width="0.4"/>
  <text x="165" y="22.5" font-size="3.5" fill="#1E293B">Actor</text>
  <rect x="197" y="18.5" width="5" height="5" rx="1.5" fill="#fff" stroke="#E2E5EA" stroke-width="0.4"/>
  <rect x="198" y="19.5" width="0.8" height="3" rx="0.4" fill="#3B82F6"/>
  <text x="205" y="22.5" font-size="3.5" fill="#1E293B">Protocol</text>
  <rect x="245" y="18.5" width="5" height="5" rx="1.5" fill="#fff" stroke="#E2E5EA" stroke-width="0.4"/>
  <rect x="246" y="19.5" width="0.8" height="3" rx="0.4" fill="#F59E0B"/>
  <text x="253" y="22.5" font-size="3.5" fill="#1E293B">External</text>
  <path d="M71.2,46.0 C71.2,70.0 98.0,70.0 98.0,94.0" fill="none" stroke="#94A3B8" stroke-width="0.5" marker-end="url(#ah)"/>
  <path d="M163.6,46.0 C163.6,70.0 98.0,70.0 98.0,94.0" fill="none" stroke="#94A3B8" stroke-width="0.5" marker-end="url(#ah)"/>
  <path d="M163.6,46.0 C163.6,70.0 224.5,70.0 224.5,94.0" fill="none" stroke="#94A3B8" stroke-width="0.5" marker-end="url(#ah)"/>
  <path d="M151.2,112.0 C158.7,126.0 168.6,126.0 176.1,114.0" fill="none" stroke="#94A3B8" stroke-width="0.5" marker-end="url(#ah)"/>
  <path d="M98.0,114.0 C98.0,135.0 76.6,135.0 76.6,156.0" fill="none" stroke="#94A3B8" stroke-width="0.5" marker-end="url(#ah)"/>
  <path d="M98.0,114.0 C98.0,135.0 169.8,135.0 169.8,156.0" fill="none" stroke="#94A3B8" stroke-width="0.5" marker-end="url(#ah)"/>
  <path d="M224.5,114.0 C224.5,135.0 169.8,135.0 169.8,156.0" fill="none" stroke="#94A3B8" stroke-width="0.5" marker-end="url(#ah)"/>
  <path d="M224.5,114.0 C224.5,135.0 263.0,135.0 263.0,156.0" fill="none" stroke="#94A3B8" stroke-width="0.5" marker-end="url(#ah)"/>
  <path d="M224.5,114.0 C224.5,135.0 374.6,135.0 374.6,156.0" fill="none" stroke="#94A3B8" stroke-width="0.5" marker-end="url(#ah)"/>
  <path d="M224.5,94.0 C224.5,70.0 260.8,70.0 260.8,46.0" fill="none" stroke="#94A3B8" stroke-width="0.5" marker-end="url(#ah)"/>
  <g filter="url(#shadow)">
    <rect x="30.0" y="32.0" width="82.4" height="14" rx="7" fill="#fff" stroke="#E2E5EA" stroke-width="0.5"/>
    <text x="71.2" y="40.8" text-anchor="middle" font-size="4.8" font-weight="600" fill="#1E293B">CRE Forwarder</text>
  </g>
  <g filter="url(#shadow)">
    <rect x="134.4" y="32.0" width="58.4" height="14" rx="7" fill="#fff" stroke="#E2E5EA" stroke-width="0.5"/>
    <text x="163.6" y="40.8" text-anchor="middle" font-size="4.8" font-weight="600" fill="#1E293B">Timelock</text>
  </g>
  <g filter="url(#shadow)">
    <rect x="214.8" y="32.0" width="92.0" height="14" rx="7" fill="#fff" stroke="#E2E5EA" stroke-width="0.5"/>
    <text x="260.8" y="40.8" text-anchor="middle" font-size="4.8" font-weight="600" fill="#1E293B">Bond Originator</text>
  </g>
  <g filter="url(#shadow)">
    <rect x="44.8" y="94.0" width="106.4" height="20" rx="3" fill="#fff" stroke="#E2E5EA" stroke-width="0.5"/>
    <rect x="47.8" y="97.0" width="1.4" height="14" rx="0.6" fill="#3B82F6"/>
    <text x="98.0" y="103.5" text-anchor="middle" font-size="4.8" font-weight="600" fill="#1E293B">DefaultCoordinator</text>
    <text x="98.0" y="108.5" text-anchor="middle" font-size="3.5" fill="#64748B">Loss orchestrator</text>
  </g>
  <g filter="url(#shadow)">
    <rect x="176.1" y="94.0" width="96.8" height="20" rx="3" fill="#fff" stroke="#E2E5EA" stroke-width="0.5"/>
    <rect x="179.1" y="97.0" width="1.4" height="14" rx="0.6" fill="#3B82F6"/>
    <text x="224.5" y="103.5" text-anchor="middle" font-size="4.8" font-weight="600" fill="#1E293B">LienXAlphaEscrow</text>
    <text x="224.5" y="108.5" text-anchor="middle" font-size="3.5" fill="#64748B">Bond custody</text>
  </g>
  <g filter="url(#shadow)">
    <rect x="35.4" y="156.0" width="82.4" height="20" rx="3" fill="#fff" stroke="#E2E5EA" stroke-width="0.5"/>
    <rect x="38.4" y="159.0" width="1.4" height="14" rx="0.6" fill="#F59E0B"/>
    <text x="76.6" y="165.5" text-anchor="middle" font-size="4.8" font-weight="600" fill="#1E293B">SzipNavOracle</text>
    <text x="76.6" y="170.5" text-anchor="middle" font-size="3.5" fill="#64748B">Provision sink</text>
  </g>
  <g filter="url(#shadow)">
    <rect x="139.8" y="156.0" width="60.0" height="20" rx="3" fill="#fff" stroke="#E2E5EA" stroke-width="0.5"/>
    <rect x="142.8" y="159.0" width="1.4" height="14" rx="0.6" fill="#F59E0B"/>
    <text x="169.8" y="165.5" text-anchor="middle" font-size="4.8" font-weight="600" fill="#1E293B">xALPHA</text>
    <text x="169.8" y="170.5" text-anchor="middle" font-size="3.5" fill="#64748B">Bond asset</text>
  </g>
  <g filter="url(#shadow)">
    <rect x="221.8" y="156.0" width="82.4" height="20" rx="3" fill="#fff" stroke="#E2E5EA" stroke-width="0.5"/>
    <rect x="224.8" y="159.0" width="1.4" height="14" rx="0.6" fill="#F59E0B"/>
    <text x="263.0" y="165.5" text-anchor="middle" font-size="4.8" font-weight="600" fill="#1E293B">Treasury Safe</text>
    <text x="263.0" y="170.5" text-anchor="middle" font-size="3.5" fill="#64748B">Capital slash</text>
  </g>
  <g filter="url(#shadow)">
    <rect x="326.2" y="156.0" width="96.8" height="20" rx="3" fill="#fff" stroke="#E2E5EA" stroke-width="0.5"/>
    <rect x="329.2" y="159.0" width="1.4" height="14" rx="0.6" fill="#F59E0B"/>
    <text x="374.6" y="165.5" text-anchor="middle" font-size="4.8" font-weight="600" fill="#1E293B">Engine/Main Safe</text>
    <text x="374.6" y="170.5" text-anchor="middle" font-size="3.5" fill="#64748B">Cohort premium</text>
  </g>
  <rect x="68.2" y="65.0" width="32.8" height="6.0" rx="1" fill="#F8F9FB"/>
  <text x="84.6" y="70.0" font-size="4" fill="#1E293B" font-weight="500" text-anchor="middle">reportType 8</text>
  <rect x="113.2" y="65.0" width="35.2" height="6.0" rx="1" fill="#F8F9FB"/>
  <text x="130.8" y="70.0" font-size="4" fill="#1E293B" font-weight="500" text-anchor="middle">owner / floor</text>
  <rect x="175.2" y="65.0" width="37.6" height="6.0" rx="1" fill="#F8F9FB"/>
  <text x="194.0" y="70.0" font-size="4" fill="#1E293B" font-weight="500" text-anchor="middle">owner / wiring</text>
  <rect x="140.0" y="125.0" width="47.2" height="6.0" rx="1" fill="#F8F9FB"/>
  <text x="163.6" y="130.0" font-size="4" fill="#1E293B" font-weight="500" text-anchor="middle">lock/release/slash</text>
  <rect x="68.5" y="130.0" width="37.6" height="6.0" rx="1" fill="#F8F9FB"/>
  <text x="87.3" y="135.0" font-size="4" fill="#1E293B" font-weight="500" text-anchor="middle">writeProvision</text>
  <rect x="118.7" y="134.0" width="30.4" height="6.0" rx="1" fill="#F8F9FB"/>
  <text x="133.9" y="139.0" font-size="4" fill="#1E293B" font-weight="500" text-anchor="middle">max approve</text>
  <rect x="180.8" y="134.0" width="32.8" height="6.0" rx="1" fill="#F8F9FB"/>
  <text x="197.2" y="139.0" font-size="4" fill="#1E293B" font-weight="500" text-anchor="middle">custody xfer</text>
  <rect x="222.6" y="130.0" width="42.4" height="6.0" rx="1" fill="#F8F9FB"/>
  <text x="243.8" y="135.0" font-size="4" fill="#1E293B" font-weight="500" text-anchor="middle">slash to capital</text>
  <rect x="279.6" y="130.0" width="40.0" height="6.0" rx="1" fill="#F8F9FB"/>
  <text x="299.6" y="135.0" font-size="4" fill="#1E293B" font-weight="500" text-anchor="middle">slash to cohort</text>
  <rect x="232.2" y="65.0" width="20.8" height="6.0" rx="1" fill="#F8F9FB"/>
  <text x="242.6" y="70.0" font-size="4" fill="#1E293B" font-weight="500" text-anchor="middle">release</text>
</svg>