<svg xmlns="http://www.w3.org/2000/svg" width="1121" height="645" viewBox="0 0 449 258" font-family="Arial, sans-serif">
  <defs>
    <marker id="ah" viewBox="0 0 8 6" refX="8" refY="3"
      markerWidth="4" markerHeight="3" orient="auto">
      <path d="M0.5,0.5 L7,3 L0.5,5.5" fill="none" stroke="#94A3B8"
        stroke-width="1.2" stroke-linejoin="round" stroke-linecap="round"/>
    </marker>
    <filter id="shadow" x="-6%" y="-8%" width="112%" height="128%">
      <feDropShadow dx="0" dy="0.5" stdDeviation="0.8"
        flood-color="#000" flood-opacity="0.05"/>
    </filter>
  </defs>
  <rect width="449" height="258" fill="#F8F9FB" rx="3"/>
  <text x="224" y="11" text-anchor="middle" font-size="6" font-weight="700" fill="#1E293B">CreditWarehouse Admin Architecture</text>
  <rect x="149" y="16" width="150" height="10" rx="3" fill="#fff" stroke="#E2E5EA" stroke-width="0.4"/>
  <rect x="154" y="18.5" width="5" height="5" rx="2.5" fill="#fff" stroke="#E2E5EA" stroke-width="0.4"/>
  <text x="162" y="22.5" font-size="3.5" fill="#1E293B">Actor</text>
  <rect x="194" y="18.5" width="5" height="5" rx="1.5" fill="#fff" stroke="#E2E5EA" stroke-width="0.4"/>
  <rect x="195" y="19.5" width="0.8" height="3" rx="0.4" fill="#3B82F6"/>
  <text x="202" y="22.5" font-size="3.5" fill="#1E293B">Protocol</text>
  <rect x="242" y="18.5" width="5" height="5" rx="1.5" fill="#fff" stroke="#E2E5EA" stroke-width="0.4"/>
  <rect x="243" y="19.5" width="0.8" height="3" rx="0.4" fill="#F59E0B"/>
  <text x="250" y="22.5" font-size="3.5" fill="#1E293B">External</text>
  <path d="M71.2,46.0 C71.2,70.0 91.3,70.0 91.3,94.0" fill="none" stroke="#94A3B8" stroke-width="0.5" marker-end="url(#ah)"/>
  <path d="M163.6,46.0 C163.6,70.0 91.3,70.0 91.3,94.0" fill="none" stroke="#94A3B8" stroke-width="0.5" marker-end="url(#ah)"/>
  <path d="M91.3,114.0 C91.3,135.0 85.2,135.0 85.2,156.0" fill="none" stroke="#94A3B8" stroke-width="0.5" marker-end="url(#ah)"/>
  <path d="M136.0,174.0 C150.6,188.0 170.1,188.0 184.7,176.0" fill="none" stroke="#94A3B8" stroke-width="0.5" marker-end="url(#ah)"/>
  <path d="M228.3,176.0 C228.3,197.0 200.8,197.0 200.8,218.0" fill="none" stroke="#94A3B8" stroke-width="0.5" marker-end="url(#ah)"/>
  <path d="M228.3,176.0 C228.3,197.0 284.4,197.0 284.4,218.0" fill="none" stroke="#94A3B8" stroke-width="0.5" marker-end="url(#ah)"/>
  <path d="M314.4,228.0 Q325.4,206.0 336.4,228.0" fill="none" stroke="#94A3B8" stroke-width="0.5" marker-end="url(#ah)"/>
  <g filter="url(#shadow)">
    <rect x="30.0" y="32.0" width="82.4" height="14" rx="7" fill="#fff" stroke="#E2E5EA" stroke-width="0.5"/>
    <text x="71.2" y="40.8" text-anchor="middle" font-size="4.8" font-weight="600" fill="#1E293B">CRE Forwarder</text>
  </g>
  <g filter="url(#shadow)">
    <rect x="134.4" y="32.0" width="58.4" height="14" rx="7" fill="#fff" stroke="#E2E5EA" stroke-width="0.5"/>
    <text x="163.6" y="40.8" text-anchor="middle" font-size="4.8" font-weight="600" fill="#1E293B">Timelock</text>
  </g>
  <g filter="url(#shadow)">
    <rect x="33.3" y="94.0" width="116.0" height="20" rx="3" fill="#fff" stroke="#E2E5EA" stroke-width="0.5"/>
    <rect x="36.3" y="97.0" width="1.4" height="14" rx="0.6" fill="#3B82F6"/>
    <text x="91.3" y="103.5" text-anchor="middle" font-size="4.8" font-weight="600" fill="#1E293B">WarehouseAdminModule</text>
    <text x="91.3" y="108.5" text-anchor="middle" font-size="3.5" fill="#64748B">Pure encoder</text>
  </g>
  <g filter="url(#shadow)">
    <rect x="34.4" y="156.0" width="101.6" height="20" rx="3" fill="#fff" stroke="#E2E5EA" stroke-width="0.5"/>
    <rect x="37.4" y="159.0" width="1.4" height="14" rx="0.6" fill="#F59E0B"/>
    <text x="85.2" y="165.5" text-anchor="middle" font-size="4.8" font-weight="600" fill="#1E293B">Roles Modifier v2</text>
    <text x="85.2" y="170.5" text-anchor="middle" font-size="3.5" fill="#64748B">Scope boundary</text>
  </g>
  <g filter="url(#shadow)">
    <rect x="184.7" y="156.0" width="87.2" height="20" rx="3" fill="#fff" stroke="#E2E5EA" stroke-width="0.5"/>
    <rect x="187.7" y="159.0" width="1.4" height="14" rx="0.6" fill="#F59E0B"/>
    <text x="228.3" y="165.5" text-anchor="middle" font-size="4.8" font-weight="600" fill="#1E293B">Warehouse Safe</text>
    <text x="228.3" y="170.5" text-anchor="middle" font-size="3.5" fill="#64748B">avatar / custody</text>
  </g>
  <g filter="url(#shadow)">
    <rect x="169.2" y="218.0" width="63.2" height="20" rx="3" fill="#fff" stroke="#E2E5EA" stroke-width="0.5"/>
    <rect x="172.2" y="221.0" width="1.4" height="14" rx="0.6" fill="#F59E0B"/>
    <text x="200.8" y="227.5" text-anchor="middle" font-size="4.8" font-weight="600" fill="#1E293B">EulerEarn</text>
    <text x="200.8" y="232.5" text-anchor="middle" font-size="3.5" fill="#64748B">Senior 4626</text>
  </g>
  <g filter="url(#shadow)">
    <rect x="254.4" y="218.0" width="60.0" height="20" rx="3" fill="#fff" stroke="#E2E5EA" stroke-width="0.5"/>
    <rect x="257.4" y="221.0" width="1.4" height="14" rx="0.6" fill="#F59E0B"/>
    <text x="284.4" y="227.5" text-anchor="middle" font-size="4.8" font-weight="600" fill="#1E293B">USDC</text>
    <text x="284.4" y="232.5" text-anchor="middle" font-size="3.5" fill="#64748B">Asset</text>
  </g>
  <g filter="url(#shadow)">
    <rect x="336.4" y="218.0" width="82.4" height="20" rx="3" fill="#fff" stroke="#E2E5EA" stroke-width="0.5"/>
    <rect x="339.4" y="221.0" width="1.4" height="14" rx="0.6" fill="#F59E0B"/>
    <text x="377.6" y="227.5" text-anchor="middle" font-size="4.8" font-weight="600" fill="#1E293B">RedemptionBox</text>
    <text x="377.6" y="232.5" text-anchor="middle" font-size="3.5" fill="#64748B">REPAY sink</text>
  </g>
  <rect x="62.4" y="65.0" width="37.6" height="6.0" rx="1" fill="#F8F9FB"/>
  <text x="81.2" y="70.0" font-size="4" fill="#1E293B" font-weight="500" text-anchor="middle">reportType 8.5</text>
  <rect x="107.4" y="65.0" width="40.0" height="6.0" rx="1" fill="#F8F9FB"/>
  <text x="127.4" y="70.0" font-size="4" fill="#1E293B" font-weight="500" text-anchor="middle">wiring re-point</text>
  <rect x="71.9" y="130.0" width="32.8" height="6.0" rx="1" fill="#F8F9FB"/>
  <text x="88.3" y="135.0" font-size="4" fill="#1E293B" font-weight="500" text-anchor="middle">execWithRole</text>
  <rect x="141.5" y="187.0" width="37.6" height="6.0" rx="1" fill="#F8F9FB"/>
  <text x="160.3" y="192.0" font-size="4" fill="#1E293B" font-weight="500" text-anchor="middle">exec as avatar</text>
  <rect x="193.3" y="192.0" width="42.4" height="6.0" rx="1" fill="#F8F9FB"/>
  <text x="214.5" y="197.0" font-size="4" fill="#1E293B" font-weight="500" text-anchor="middle">deposit / redeem</text>
  <rect x="240.7" y="190.0" width="47.2" height="6.0" rx="1" fill="#F8F9FB"/>
  <text x="264.3" y="195.0" font-size="4" fill="#1E293B" font-weight="500" text-anchor="middle">approve / transfer</text>
  <rect x="317.4" y="205.0" width="16.0" height="6.0" rx="1" fill="#F8F9FB"/>
  <text x="325.4" y="210.0" font-size="4" fill="#1E293B" font-weight="500" text-anchor="middle">REPAY</text>
</svg>